<svg xmlns="http://www.w3.org/2000/svg" xmlns:xlink="http://www.w3.org/1999/xlink" viewBox="0 0 22.1 22.1"><defs><style>.cls-1{fill:none;}.cls-2{clip-path:url(#clip-path);}.cls-3,.cls-4{fill:#f7941d;}.cls-4{opacity:0.69;}.cls-5{fill:#fbb040;opacity:0.75;}</style><clipPath id="clip-path" transform="translate(0.73 1.49)"><ellipse class="cls-1" cx="10.32" cy="9.56" rx="10.32" ry="9.56"/></clipPath></defs><g id="Layer_2" data-name="Layer 2"><g id="Layer_1-2" data-name="Layer 1"><g class="cls-2"><path class="cls-3" d="M20.34-1.49v22.1H.3v-18H16.23V16.5H8.52V8.27H4.41v-2h6.16v8.22h4.11V4.68H2.35V18.55H18.28V.57H.3V-1.49Z" transform="translate(0.73 1.49)"/><path class="cls-4" d="M20.34-1.49v22.1H.3v-18H16.23V16.5H8.52V8.27H4.41v-2h6.16v8.22h4.11V4.68H2.35V18.55H18.28V.57H.3V-1.49Z" transform="translate(0.73 1.49)"/><path class="cls-5" d="M-.73-.46h22.1v20h-18V3.65H17.25v7.71H9v4.11H7V9.3H15.2V5.19H5.43V17.52H19.31V1.59h-18v18h-2Z" transform="translate(0.73 1.49)"/></g></g></g></svg>